<?xml version="1.0" encoding="utf-8"?>
<!-- Generator: Adobe Illustrator 25.0.0, SVG Export Plug-In . SVG Version: 6.00 Build 0)  -->
<svg version="1.1" id="Livello_1" xmlns="http://www.w3.org/2000/svg" xmlns:xlink="http://www.w3.org/1999/xlink" x="0px" y="0px"
	 viewBox="0 0 500 500" style="enable-background:new 0 0 500 500;" xml:space="preserve">
<style type="text/css">
	.st0{fill:#DCD2D0;}
	.st1{fill:#B9AFAD;}
	.st2{fill:url(#SVGID_1_);}
	.st3{fill:#FFFFFF;}
	.st4{fill:url(#SVGID_2_);}
</style>
<g>
	<ellipse class="st0" cx="250" cy="250" rx="202.97" ry="204.26"/>
	<path class="st1" d="M483.31,236.83c-7.56-2.3-15.38-4.69-21.15-7.19l-1.14-0.5l-0.13-1.24c-0.53-5.17-1.32-10.62-2.43-16.68
		l-0.22-1.22l0.95-0.8c4.97-4.19,12.04-8.83,18.87-13.32c4.81-3.16,9.77-6.42,13.88-9.45c-1.2-4.63-2.63-9.46-4.34-14.7
		c-5.22-0.33-11.3-0.39-17.2-0.44c-7.97-0.07-16.22-0.13-22.5-0.91l-1.23-0.15l-0.47-1.15c-2.08-5.11-4.43-10.26-6.98-15.31
		l-0.56-1.11l0.69-1.04c3.57-5.38,8.98-11.79,14.22-17.99c3.76-4.45,7.64-9.04,10.76-13.17c-2.55-4.27-5.33-8.59-8.27-12.9
		c-5.06,1.15-10.87,2.82-16.49,4.44c-7.72,2.22-15.71,4.51-22,5.55l-1.22,0.2l-0.78-0.97c-3.49-4.39-7.18-8.67-10.96-12.72
		l-0.85-0.91l0.37-1.19c1.91-6.14,5.31-13.79,8.6-21.19c2.38-5.36,4.83-10.88,6.68-15.75c-3.74-3.47-7.61-6.85-11.53-10.07
		c-4.52,2.53-9.6,5.75-14.53,8.87c-6.82,4.32-13.88,8.79-19.66,11.57l-1.12,0.54l-1.01-0.72c-4.61-3.25-9.34-6.32-14.07-9.13
		l-1.07-0.63l0.02-1.25c0.13-6.4,1.25-14.65,2.33-22.63c0.79-5.86,1.6-11.9,2.02-17.13c-4.68-2.33-9.32-4.48-13.84-6.4
		c-3.6,3.69-7.54,8.19-11.37,12.56c-5.36,6.12-10.91,12.45-15.71,16.78l-0.92,0.83l-1.17-0.4c-5.64-1.91-10.89-3.48-16.06-4.78
		l-1.2-0.3l-0.32-1.21c-1.65-6.13-2.89-14.3-4.09-22.2c-0.89-5.88-1.81-11.95-2.9-17.12C287.8,1.27,282.84,0.54,278.08,0
		c-2.39,4.52-4.88,9.9-7.3,15.12c-3.45,7.46-7.02,15.17-10.44,20.73l-0.65,1.06l-1.23-0.05c-5.62-0.22-11.3-0.22-16.92,0l-1.23,0.05
		l-0.65-1.06c-3.42-5.56-7-13.28-10.46-20.75c-2.41-5.21-4.9-10.58-7.28-15.09c-4.75,0.54-9.72,1.28-15.11,2.22
		c-1.08,5.17-2,11.23-2.9,17.12c-1.2,7.9-2.44,16.07-4.09,22.21l-0.32,1.21l-1.21,0.3c-5.21,1.32-10.46,2.88-16.06,4.78l-1.17,0.4
		l-0.92-0.83c-4.8-4.33-10.35-10.67-15.71-16.8c-3.83-4.37-7.77-8.87-11.36-12.56c-4.49,1.91-9.04,4.01-13.84,6.41
		c0.42,5.23,1.23,11.27,2.02,17.13c1.08,7.98,2.19,16.23,2.33,22.63l0.03,1.25l-1.07,0.63c-4.77,2.83-9.5,5.89-14.07,9.12
		l-1.01,0.72l-1.12-0.54c-5.78-2.78-12.84-7.25-19.66-11.58c-4.93-3.12-10-6.34-14.52-8.87c-3.88,3.18-7.75,6.56-11.53,10.07
		c1.85,4.86,4.3,10.38,6.67,15.73c3.29,7.4,6.68,15.06,8.6,21.21l0.37,1.19l-0.85,0.91c-3.85,4.14-7.54,8.42-10.97,12.73l-0.78,0.97
		l-1.22-0.2c-6.3-1.04-14.3-3.33-22.02-5.55c-5.62-1.61-11.41-3.27-16.47-4.43c-2.93,4.29-5.7,8.61-8.27,12.9
		c3.12,4.13,7,8.72,10.76,13.17c5.24,6.2,10.66,12.61,14.22,17.98l0.69,1.03l-0.56,1.11c-2.57,5.09-4.91,10.25-6.98,15.31
		l-0.47,1.15l-1.23,0.15c-6.3,0.78-14.55,0.85-22.53,0.91c-5.89,0.05-11.97,0.1-17.19,0.44c-1.7,5.21-3.13,10.04-4.34,14.7
		c4.13,3.05,9.11,6.32,13.94,9.49c6.81,4.48,13.86,9.11,18.82,13.28l0.95,0.8l-0.22,1.22c-1.1,6.05-1.9,11.51-2.43,16.68l-0.13,1.24
		l-1.14,0.5c-5.77,2.5-13.59,4.88-21.15,7.19c-5.69,1.74-11.56,3.53-16.51,5.35C0.08,244.91,0,247.45,0,250
		c0,2.62,0.08,5.22,0.18,7.82c4.96,1.83,10.84,3.62,16.54,5.36c7.55,2.3,15.36,4.69,21.13,7.18l1.14,0.5l0.13,1.24
		c0.53,5.17,1.32,10.62,2.43,16.68l0.22,1.22l-0.95,0.8c-4.96,4.17-12.01,8.8-18.83,13.28c-4.82,3.17-9.8,6.44-13.93,9.48
		c1.2,4.62,2.62,9.45,4.34,14.69c5.22,0.34,11.29,0.39,17.18,0.44c7.98,0.07,16.23,0.14,22.52,0.91l1.23,0.15l0.47,1.15
		c2.06,5.04,4.41,10.19,6.99,15.32l0.56,1.11l-0.69,1.03c-3.57,5.39-8.99,11.81-14.24,18.01c-3.75,4.44-7.62,9.02-10.74,13.14
		c2.56,4.28,5.34,8.61,8.27,12.89c5.06-1.16,10.85-2.82,16.47-4.43c7.73-2.22,15.72-4.51,22.02-5.55l1.22-0.2l0.78,0.97
		c3.45,4.34,7.14,8.62,10.97,12.73l0.85,0.91l-0.37,1.19c-1.92,6.14-5.31,13.8-8.6,21.2c-2.37,5.35-4.82,10.87-6.67,15.73
		c3.77,3.5,7.64,6.88,11.53,10.07c4.51-2.53,9.59-5.74,14.51-8.87c6.83-4.32,13.89-8.8,19.67-11.58l1.12-0.54l1.01,0.71
		c4.61,3.25,9.34,6.32,14.08,9.13l1.07,0.63l-0.02,1.25c-0.13,6.4-1.25,14.65-2.33,22.63c-0.79,5.86-1.61,11.9-2.03,17.13
		c4.73,2.36,9.29,4.47,13.84,6.4c3.6-3.69,7.56-8.2,11.39-12.57c5.36-6.12,10.91-12.44,15.7-16.77l0.92-0.83l1.17,0.4
		c5.65,1.92,10.9,3.48,16.05,4.78l1.2,0.3l0.32,1.2c1.66,6.14,2.9,14.33,4.1,22.25c0.89,5.87,1.81,11.92,2.89,17.08
		c5.38,0.95,10.35,1.69,15.11,2.23c2.38-4.51,4.87-9.89,7.29-15.1c3.46-7.46,7.03-15.18,10.45-20.75l0.65-1.06l1.24,0.05
		c5.62,0.23,11.3,0.23,16.91,0l1.24-0.05l0.65,1.06c3.42,5.56,6.99,13.27,10.44,20.72c2.41,5.22,4.91,10.61,7.3,15.13
		c4.77-0.55,9.74-1.28,15.11-2.23c1.08-5.16,2-11.23,2.89-17.1c1.2-7.91,2.44-16.08,4.1-22.22l0.32-1.2l1.21-0.3
		c5.2-1.31,10.45-2.88,16.05-4.78l1.17-0.4l0.92,0.83c4.8,4.33,10.35,10.67,15.72,16.79c3.82,4.37,7.76,8.87,11.36,12.55
		c4.52-1.92,9.08-4.03,13.84-6.4c-0.42-5.22-1.23-11.26-2.02-17.11c-1.08-7.99-2.19-16.25-2.32-22.65l-0.02-1.24l1.07-0.63
		c4.79-2.85,9.52-5.92,14.07-9.13l1.01-0.72l1.12,0.54c5.78,2.79,12.83,7.26,19.66,11.58c4.92,3.12,10.01,6.34,14.52,8.87
		c3.88-3.18,7.75-6.56,11.53-10.06c-1.85-4.86-4.3-10.38-6.67-15.73c-3.29-7.4-6.69-15.06-8.6-21.2l-0.37-1.19l0.85-0.91
		c3.84-4.13,7.53-8.41,10.97-12.73l0.77-0.97l1.22,0.2c6.3,1.04,14.29,3.33,22.01,5.55c5.62,1.61,11.42,3.28,16.48,4.43
		c2.92-4.26,5.69-8.59,8.27-12.9c-3.12-4.12-6.99-8.7-10.75-13.15c-5.24-6.2-10.66-12.62-14.23-18l-0.69-1.04l0.56-1.11
		c2.55-5.06,4.9-10.22,6.98-15.32l0.47-1.15l1.23-0.15c6.29-0.78,14.53-0.84,22.5-0.91c5.9-0.05,11.98-0.1,17.2-0.44
		c1.71-5.25,3.14-10.08,4.34-14.7c-4.13-3.04-9.09-6.31-13.91-9.47c-6.82-4.48-13.87-9.12-18.84-13.3l-0.94-0.8l0.22-1.22
		c1.11-6.05,1.9-11.51,2.43-16.68l0.13-1.24l1.14-0.5c5.77-2.49,13.58-4.88,21.13-7.18c5.7-1.74,11.58-3.53,16.54-5.36
		c0.1-2.6,0.18-5.2,0.18-7.82c0-2.62-0.09-5.22-0.18-7.82C494.87,240.35,488.99,238.56,483.31,236.83z M315.69,79.81l0.84-0.41
		l0.86,0.35c24.84,9.97,47.64,25.68,65.92,45.46l2.79,3.02l-4.06,0.55c-33.44,4.5-80.9,33.4-107.47,58.74l-0.95,0.91l-1.23-0.45
		c-7.31-2.68-14.84-4.03-22.4-4.03c-1.85,0-3.84,0.1-6.07,0.31l-2.91,0.27l0.65-2.87C252.73,132.96,287.28,93.56,315.69,79.81z
		 M281.73,250c0,8.53-3.3,16.55-9.29,22.58c-5.99,6.03-13.96,9.35-22.43,9.35c-8.48,0-16.45-3.32-22.44-9.35
		c-12.37-12.45-12.37-32.7,0-45.15c5.99-6.03,13.96-9.35,22.44-9.35c8.47,0,16.44,3.32,22.43,9.35
		C278.43,233.45,281.73,241.47,281.73,250z M176.89,82.87l0.31-0.88l0.85-0.37c22.81-9.87,47.01-14.88,71.95-14.88
		c2.21,0,4.4,0.08,6.58,0.17l4.08,0.16l-2.48,3.27c-20.47,26.96-33.72,81.17-34.71,118l-0.04,1.32l-1.18,0.56
		c-8.79,4.13-16.65,10.22-22.75,17.61l-1.87,2.26l-1.55-2.49C169.69,165.27,166.45,112.81,176.89,82.87z M80.83,182.17
		c9.91-25.01,25.53-47.94,45.17-66.34l3-2.81l0.54,4.09c4.46,33.62,33.18,81.39,58.36,108.16l0.9,0.95l-0.45,1.24
		c-2.66,7.36-4.01,14.94-4.01,22.53c0,2.06,0.13,4.1,0.31,6.12l0.26,2.92l-2.84-0.66c-48.38-11.14-87.53-45.91-101.19-74.5
		l-0.4-0.84L80.83,182.17z M83.93,323.57l-0.88-0.31l-0.37-0.86C72.87,299.47,67.9,275.11,67.9,250c0-1.95,0.07-3.87,0.13-5.8
		l0.17-4.95l3.26,2.5c26.78,20.59,80.65,33.94,117.26,34.94l1.31,0.04l0.55,1.19c4.11,8.85,10.16,16.76,17.51,22.9l2.25,1.88
		l-2.48,1.56c-25.04,15.81-56.79,24.88-87.11,24.88C106.98,329.15,94.25,327.22,83.93,323.57z M184.3,420.19l-0.84,0.41l-0.86-0.35
		c-24.85-9.97-47.64-25.69-65.92-45.46l-2.79-3.02l4.06-0.55c33.43-4.5,80.89-33.4,107.47-58.74l0.95-0.91l1.23,0.45
		c9.29,3.4,19.09,4.58,28.47,3.72l2.91-0.26l-0.65,2.86C247.27,367.04,212.72,406.43,184.3,420.19z M323.11,417.12l-0.31,0.88
		l-0.86,0.37c-22.79,9.88-47,14.88-71.95,14.88c-2.02,0-4.02-0.07-6.02-0.15l-4.65-0.17l2.48-3.27
		c20.47-26.96,33.73-81.17,34.71-118l0.04-1.31l1.18-0.56c8.79-4.14,16.66-10.24,22.76-17.62l1.87-2.26l1.56,2.49
		C330.32,334.74,333.55,387.19,323.11,417.12z M419.17,317.83c-9.91,25-25.53,47.94-45.17,66.33l-3,2.81l-0.54-4.08
		c-4.47-33.63-33.18-81.4-58.37-108.15l-0.9-0.95l0.45-1.24c2.66-7.36,4.01-14.95,4.01-22.54c0-1.86-0.1-3.81-0.31-6.12l-0.27-2.93
		l2.85,0.66c48.38,11.13,87.53,45.91,101.19,74.5l0.41,0.84L419.17,317.83z M431.97,255.8l-0.17,4.95l-3.26-2.5
		c-26.79-20.6-80.66-33.94-117.25-34.93l-1.31-0.04l-0.55-1.19c-4.11-8.85-10.17-16.77-17.51-22.91l-2.25-1.88l2.48-1.56
		c25.03-15.81,56.79-24.88,87.13-24.88c13.76,0,26.48,1.93,36.8,5.57l0.87,0.31l0.37,0.86c9.81,22.95,14.79,47.31,14.79,72.41
		C432.1,251.95,432.04,253.87,431.97,255.8z"/>
	
		<radialGradient id="SVGID_1_" cx="250" cy="249.7725" r="145.7835" gradientTransform="matrix(0.9946 0 0 1.0009 1.3569 0)" gradientUnits="userSpaceOnUse">
		<stop  offset="0" style="stop-color:#CE2D00"/>
		<stop  offset="0.7386" style="stop-color:#8B0E07"/>
		<stop  offset="1" style="stop-color:#72030A"/>
	</radialGradient>
	<polygon class="st2" points="250,207.39 310.06,104.08 279.94,219.87 394.99,189.56 292.34,250 394.99,310.44 279.94,280.13 
		310.06,395.92 250,292.61 189.94,395.92 220.06,280.13 105.01,310.44 207.66,250 105.01,189.56 220.06,219.87 189.94,104.08 	"/>
	<g>
		<polygon class="st3" points="286.96,212.8 443.75,250 286.96,287.2 250,444.98 213.04,287.2 56.25,250 213.04,212.8 250,55.02 		
			"/>
		
			<radialGradient id="SVGID_2_" cx="250" cy="249.7725" r="200.4897" gradientTransform="matrix(0.9946 0 0 1.0009 1.3569 0)" gradientUnits="userSpaceOnUse">
			<stop  offset="0" style="stop-color:#CE2D00"/>
			<stop  offset="0.061" style="stop-color:#C52901"/>
			<stop  offset="0.3336" style="stop-color:#A11805"/>
			<stop  offset="0.5892" style="stop-color:#870D08"/>
			<stop  offset="0.8188" style="stop-color:#770609"/>
			<stop  offset="1" style="stop-color:#72030A"/>
		</radialGradient>
		<path class="st4" d="M250,450.67l-38.04-162.39L50.6,250l161.36-38.28L250,49.33l38.04,162.39L449.4,250l-161.36,38.28L250,450.67
			z M61.91,250l152.21,36.11l0.18,0.79L250,439.29l35.88-153.18l0.78-0.19L438.09,250l-152.21-36.11l-0.18-0.79L250,60.71
			l-35.88,153.18l-0.78,0.19L61.91,250z"/>
	</g>
</g>
</svg>
